<svg width="36" height="36" viewBox="0 0 36 36" fill="none" xmlns="http://www.w3.org/2000/svg">
<path d="M33.0019 31.9347C33.0019 32.5031 32.7761 33.0482 32.3742 33.4501C31.9722 33.852 31.4271 34.0778 30.8587 34.0778H5.14123C4.57284 34.0778 4.02773 33.852 3.62581 33.4501C3.2239 33.0482 2.99811 32.5031 2.99811 31.9347V4.07403C2.99811 3.50564 3.2239 2.96053 3.62581 2.55862C4.02773 2.1567 4.57284 1.93091 5.14123 1.93091H26.6368C27.1964 1.93097 27.7338 2.14993 28.1341 2.54098L32.3561 6.65864C32.5606 6.8584 32.7231 7.09708 32.8341 7.36061C32.945 7.62414 33.002 7.9072 33.0019 8.19312V31.9347Z" stroke="#CECECE" stroke-width="1.71" stroke-linecap="round" stroke-linejoin="round"/>
<path d="M21.279 13.718L26.6368 19.0758L21.279 24.4336" stroke="#CECECE" stroke-width="1.71" stroke-linecap="round" stroke-linejoin="round"/>
<path d="M14.8496 13.718L9.49182 19.0758L14.8496 24.4336" stroke="#CECECE" stroke-width="1.71" stroke-linecap="round" stroke-linejoin="round"/>
</svg>
