<svg width="36" height="36" viewBox="0 0 36 36" fill="none" xmlns="http://www.w3.org/2000/svg">
<path d="M30.8587 34.0734H8.35594C7.50335 34.0734 6.68568 33.7347 6.08281 33.1319C5.47994 32.529 5.14125 31.7113 5.14125 30.8587" stroke="black" stroke-width="1.71" stroke-linecap="round" stroke-linejoin="round"/>
<path d="M18 4.0697H9.4275C8.29072 4.0697 7.20049 4.52129 6.39666 5.32512C5.59284 6.12894 5.14125 7.21917 5.14125 8.35595V30.8588C5.14125 30.0062 5.47994 29.1885 6.08281 28.5856C6.68568 27.9828 7.50335 27.6441 8.35594 27.6441H29.7872C30.0714 27.6441 30.3439 27.5312 30.5449 27.3302C30.7459 27.1293 30.8587 26.8567 30.8587 26.5725V5.14126C30.8587 4.85707 30.7459 4.58451 30.5449 4.38356C30.3439 4.1826 30.0714 4.0697 29.7872 4.0697H26.5725" stroke="black" stroke-width="1.71" stroke-linecap="round" stroke-linejoin="round"/>
<path d="M28.7156 34.0734V27.6441" stroke="black" stroke-width="1.71" stroke-linecap="round" stroke-linejoin="round"/>
<path d="M26.5725 19.0716L22.2862 14.7853L18 19.0716V4.0697C18 3.50131 18.2258 2.9562 18.6277 2.55428C19.0296 2.15237 19.5747 1.92657 20.1431 1.92657H24.4294C24.7108 1.92657 24.9895 1.98201 25.2495 2.08971C25.5095 2.19741 25.7458 2.35527 25.9448 2.55428C26.1438 2.75329 26.3017 2.98955 26.4094 3.24956C26.5171 3.50958 26.5725 3.78826 26.5725 4.0697V19.0716Z" stroke="black" stroke-width="1.71" stroke-linecap="round" stroke-linejoin="round"/>
</svg>
