<svg width="36" height="36" viewBox="0 0 36 36" fill="none" xmlns="http://www.w3.org/2000/svg">
<path d="M23.3578 10.5148H28.7156C29.284 10.5148 29.8291 10.7406 30.231 11.1425C30.6329 11.5444 30.8587 12.0895 30.8587 12.6579V26.7725C30.8586 27.3405 30.633 27.8852 30.2315 28.287L25.0566 33.4619C24.6548 33.8634 24.1101 34.089 23.5421 34.0892H7.28436C6.71597 34.0892 6.17086 33.8634 5.76894 33.4614C5.36703 33.0595 5.14124 32.5144 5.14124 31.946V12.6579C5.14124 12.0895 5.36703 11.5444 5.76894 11.1425C6.17086 10.7406 6.71597 10.5148 7.28436 10.5148H12.6422" stroke="#C4A500" stroke-width="1.71" stroke-linecap="round" stroke-linejoin="round"/>
<path d="M22.2863 34.0892V27.6598C22.2863 27.3783 22.3417 27.0997 22.4494 26.8396C22.5571 26.5796 22.715 26.3434 22.914 26.1444C23.113 25.9454 23.3492 25.7875 23.6092 25.6798C23.8693 25.5721 24.1479 25.5167 24.4294 25.5167H30.8588" stroke="#C4A500" stroke-width="1.71" stroke-linecap="round" stroke-linejoin="round"/>
<path d="M14.7853 5.15697C14.7853 6.00955 15.124 6.82722 15.7268 7.43009C16.3297 8.03296 17.1474 8.37165 18 8.37165C18.8526 8.37165 19.6702 8.03296 20.2731 7.43009C20.876 6.82722 21.2147 6.00955 21.2147 5.15697C21.2147 4.30438 20.876 3.48671 20.2731 2.88384C19.6702 2.28097 18.8526 1.94228 18 1.94228C17.1474 1.94228 16.3297 2.28097 15.7268 2.88384C15.124 3.48671 14.7853 4.30438 14.7853 5.15697Z" stroke="#C4A500" stroke-width="1.71" stroke-linecap="round" stroke-linejoin="round"/>
<path d="M18 15.8726V8.37165" stroke="#C4A500" stroke-width="1.71" stroke-linecap="round" stroke-linejoin="round"/>
<path d="M10.499 21.2304H25.5009" stroke="#C4A500" stroke-width="1.71" stroke-linecap="round" stroke-linejoin="round"/>
<path d="M10.499 27.6598H16.9284" stroke="#C4A500" stroke-width="1.71" stroke-linecap="round" stroke-linejoin="round"/>
</svg>
