<svg width="36" height="36" viewBox="0 0 36 36" fill="none" xmlns="http://www.w3.org/2000/svg">
<path d="M16.8591 15.4997V4.49831C16.8591 3.06956 18.0021 1.92657 19.4309 1.92657C20.8596 1.92657 22.0026 3.06956 22.0026 4.49831V15.4997" stroke="#C81418" stroke-width="1.71" stroke-miterlimit="10" stroke-linecap="round" stroke-linejoin="round"/>
<path d="M16.8591 15.4997V6.06998C16.8591 4.64123 15.7161 3.49823 14.2874 3.49823C12.8587 3.49823 11.7156 4.64123 11.7156 6.06998V21.929L7.71514 19.643C6.57214 19.2144 5.14339 19.5002 4.28614 20.5003C3.42889 21.5004 3.57178 23.072 4.42903 24.0722L9.85827 30.2158C12.0014 32.6447 15.1446 34.0734 18.4307 34.0734H23.7171C28.432 34.0734 32.2896 30.2158 32.2896 25.5009V9.35606C32.2896 7.92731 31.1466 6.78433 29.7179 6.78433C28.2891 6.78433 27.1461 7.92731 27.1461 9.35606V15.4997" stroke="#C81418" stroke-width="1.71" stroke-miterlimit="10" stroke-linecap="round" stroke-linejoin="round"/>
<path d="M27.1462 15.4997V6.06998C27.1462 4.64123 26.0032 3.49823 24.5744 3.49823C23.1457 3.49823 22.0027 4.64123 22.0027 6.06998V15.4997" stroke="#C81418" stroke-width="1.71" stroke-miterlimit="10" stroke-linecap="round" stroke-linejoin="round"/>
</svg>
