<svg fill="none" height="18" viewBox="0 0 349 18" width="349" xmlns="http://www.w3.org/2000/svg"><path d="m189 8.5h160" stroke="#e5e5e5"/><path d="m-0 8.5 160-.00001" stroke="#e5e5e5"/><path clip-rule="evenodd" d="m182.712 1.08696c.473.2102.934.44889 1.381.71432l-.071.65833c-.449-.25428-.911-.48052-1.385-.67682zm-16.859 8.6916c-.19.44074-.364.89314-.52 1.35594l-1.092-.4899c.161-.461.337-.91197.529-1.35182zm2.522-4.11275-.855-.77421c.318-.36896.651-.72067.996-1.05383l.844.76437c-.343.33569-.672.69072-.985 1.06367zm4.329-3.48218-.527-.91995c.439-.21257.89-.400236 1.349-.561524l.516.898714c-.457.16735-.903.36215-1.338.58276zm5-1.30064-.185-.88244759c.038-.00036138.077-.00054241.116-.00054241.466 0 .927.0261359 1.381.0772411l.178.8492139c-.359-.033344-.722-.050329-1.088-.050329-.134 0-.269.002298-.402.006864zm8.969 4.16376c-2.32-2.30421-5.307-3.69085-8.567-3.69085-7.094 0-12.898 6.56929-13.344 14.8709l10.057 1.7732c-.204-.8597-.313-1.7668-.313-2.7042 0-5.48458 3.732-9.93073 8.336-9.93073 1.114 0 2.177.26034 3.148.73274zm-3.013.7624c-.262-.03097-.528-.04682-.797-.04682-.222 0-.442.01083-.66.03208l-.082.76181c.361-.0662.73-.10054 1.107-.10054.121 0 .241.00357.361.01061zm-7.617 10.13175c-.024-.2864-.037-.5769-.037-.8709 0-.2436.009-.485.026-.7235l-1.056-.4738c-.055.4511-.084.9124-.084 1.3817 0 .057.001.1138.001.1706zm-.671-3.9372.886.8029c.121-.529.282-1.0378.481-1.5211l-.804-.7282c-.22.4595-.409.943-.563 1.4464zm1.354-2.80683.56.97633c.272-.46939.583-.90491.926-1.30024l-.497-.86582c-.358.36123-.689.75946-.989 1.18973zm2.252-2.23226.203.96996c.407-.32961.845-.61083 1.306-.83673l-.176-.83857c-.465.18713-.911.42402-1.333.70534z" fill="#e5e5e5" fill-rule="evenodd"/></svg>