<svg width="687" height="18" viewBox="0 0 687 18" fill="none" xmlns="http://www.w3.org/2000/svg">
<line x1="358" y1="8.50008" x2="687" y2="8.50005" stroke="#C81418"/>
<line y1="8.50008" x2="329" y2="8.50008" stroke="#C81418"/>
<path fill-rule="evenodd" clip-rule="evenodd" d="M351.712 1.08696C352.185 1.29716 352.646 1.53585 353.093 1.80128L353.022 2.45961C352.573 2.20533 352.111 1.97909 351.637 1.78279L351.712 1.08696ZM334.853 9.77856C334.663 10.2193 334.489 10.6717 334.333 11.1345L333.241 10.6446C333.402 10.1836 333.578 9.73263 333.77 9.29278L334.853 9.77856ZM337.375 5.66581L336.52 4.8916C336.838 4.52264 337.171 4.17093 337.516 3.83777L338.36 4.60214C338.017 4.93783 337.688 5.29286 337.375 5.66581ZM341.704 2.18363L341.177 1.26368C341.616 1.05111 342.067 0.863444 342.526 0.702156L343.042 1.60087C342.585 1.76822 342.139 1.96302 341.704 2.18363ZM346.704 0.88299L346.519 0.000542413C346.557 0.000181029 346.596 0 346.635 0C347.101 0 347.562 0.0261359 348.016 0.0772411L348.194 0.926455C347.835 0.893111 347.472 0.876126 347.106 0.876126C346.972 0.876126 346.837 0.878424 346.704 0.88299ZM355.673 5.04675C353.353 2.74254 350.366 1.3559 347.106 1.3559C340.012 1.3559 334.208 7.92519 333.762 16.2268L343.819 18C343.615 17.1403 343.506 16.2332 343.506 15.2958C343.506 9.81122 347.238 5.36507 351.842 5.36507C352.956 5.36507 354.019 5.62541 354.99 6.09781L355.673 5.04675ZM352.66 5.80915C352.398 5.77818 352.132 5.76233 351.863 5.76233C351.641 5.76233 351.421 5.77316 351.203 5.79441L351.121 6.55622C351.482 6.49002 351.851 6.45568 352.228 6.45568C352.349 6.45568 352.469 6.45925 352.589 6.46629L352.66 5.80915ZM345.043 15.9409C345.019 15.6545 345.006 15.364 345.006 15.07C345.006 14.8264 345.015 14.585 345.032 14.3465L343.976 13.8727C343.921 14.3238 343.892 14.7851 343.892 15.2544C343.892 15.3114 343.893 15.3682 343.893 15.425L345.043 15.9409ZM344.372 12.0037L345.258 12.8066C345.379 12.2776 345.54 11.7688 345.739 11.2855L344.935 10.5573C344.715 11.0168 344.526 11.5003 344.372 12.0037ZM345.726 9.19687L346.286 10.1732C346.558 9.70381 346.869 9.26829 347.212 8.87296L346.715 8.00714C346.357 8.36837 346.026 8.7666 345.726 9.19687ZM347.978 6.96461L348.181 7.93457C348.588 7.60496 349.026 7.32374 349.487 7.09784L349.311 6.25927C348.846 6.4464 348.4 6.68329 347.978 6.96461Z" fill="#C81418"/>
</svg>
