<svg width="687" height="22" viewBox="0 0 687 22" fill="none" xmlns="http://www.w3.org/2000/svg">
<line x1="358" y1="10.5" x2="687" y2="10.5" stroke="#C81418"/>
<line y1="10.5" x2="329" y2="10.5" stroke="#C81418"/>
<circle cx="344" cy="11" r="11" fill="#CC0000"/>
<path fill-rule="evenodd" clip-rule="evenodd" d="M349.556 5.4389C349.888 5.58662 350.212 5.75437 350.526 5.94091L350.476 6.40354C350.161 6.22484 349.836 6.06584 349.503 5.92789L349.556 5.4389ZM337.708 11.5471C337.574 11.8569 337.452 12.1748 337.342 12.5001L336.575 12.1558C336.688 11.8318 336.812 11.5148 336.947 11.2057L337.708 11.5471ZM339.48 8.65681L338.879 8.11269C339.103 7.85338 339.336 7.60622 339.579 7.37208L340.172 7.90928C339.931 8.1452 339.7 8.3947 339.48 8.65681ZM342.523 6.20959L342.152 5.56305C342.461 5.41366 342.777 5.28178 343.1 5.16843L343.463 5.80004C343.142 5.91765 342.828 6.05455 342.523 6.20959ZM346.036 5.29555L345.906 4.67538C345.933 4.67513 345.96 4.675 345.988 4.675C346.315 4.675 346.639 4.69337 346.958 4.72929L347.083 5.3261C346.831 5.30266 346.576 5.29072 346.319 5.29072C346.224 5.29072 346.13 5.29234 346.036 5.29555ZM352.339 8.22172C350.709 6.60239 348.61 5.6279 346.319 5.6279C341.333 5.6279 337.254 10.2446 336.941 16.0788L344.009 17.325C343.866 16.7208 343.789 16.0834 343.789 15.4246C343.789 11.5701 346.412 8.44546 349.647 8.44546C350.43 8.44546 351.177 8.62842 351.86 8.96041L352.339 8.22172ZM350.222 8.75754C350.038 8.73578 349.851 8.72464 349.662 8.72464C349.506 8.72464 349.351 8.73225 349.198 8.74719L349.14 9.28258C349.394 9.23605 349.654 9.21191 349.918 9.21191C350.003 9.21191 350.088 9.21441 350.172 9.21935L350.222 8.75754ZM344.869 15.8779C344.852 15.6766 344.843 15.4725 344.843 15.2659C344.843 15.0946 344.849 14.925 344.861 14.7574L344.119 14.4244C344.08 14.7414 344.06 15.0656 344.06 15.3954C344.06 15.4355 344.06 15.4754 344.061 15.5153L344.869 15.8779ZM344.397 13.1109L345.02 13.6752C345.105 13.3035 345.218 12.9459 345.358 12.6062L344.793 12.0945C344.638 12.4174 344.505 12.7572 344.397 13.1109ZM345.349 11.1383L345.742 11.8245C345.934 11.4946 346.152 11.1885 346.393 10.9107L346.044 10.3022C345.792 10.5561 345.56 10.836 345.349 11.1383ZM346.931 9.56958L347.074 10.2512C347.36 10.0196 347.668 9.82197 347.992 9.66321L347.869 9.07388C347.542 9.20539 347.228 9.37187 346.931 9.56958Z" fill="white"/>
</svg>
