<svg height="34" viewBox="0 0 28 34" width="28" xmlns="http://www.w3.org/2000/svg"><g style="fill:none;fill-rule:evenodd;stroke:#e5e5e5;stroke-linecap:round;stroke-linejoin:round;stroke-width:1.71" transform="translate(1.141 .927)"><path d="m25.71745 32.14683h-22.50276c-.85259 0-1.67026-.3387-2.27313-.9415-.60287-.6029-.94156-1.4206-.94156-2.2732"/><path d="m12.85875 2.14313h-8.5725c-1.13678 0-2.22701.45159-3.03084 1.25542-.80382.80382-1.25541 1.89405-1.25541 3.03083v22.50285c0-.8526.33869-1.6703.94156-2.2732.60287-.6028 1.42054-.9415 2.27313-.9415h21.43126c.2842 0 .5567-.1129.7577-.3139.201-.2009.3138-.4735.3138-.7577v-21.43124c0-.28419-.1128-.55675-.3138-.7577-.201-.20096-.4735-.31386-.7577-.31386h-3.2147"/><path d="m23.574 32.147v-6.429"/><path d="m21.43125 17.14503-4.2863-4.2863-4.2862 4.2863v-15.0019c0-.56839.2258-1.1135.6277-1.51542.4019-.40191.947-.62771 1.5154-.62771h4.2863c.2814 0 .5601.05544.8201.16314s.4963.26556.6953.46457.3569.43527.4646.69528c.1077.26002.1631.5387.1631.82014z"/></g></svg>