<svg fill="none" height="36" viewBox="0 0 36 36" width="36" xmlns="http://www.w3.org/2000/svg"><g stroke="#666" stroke-width="1.71"><path d="m31.9303 27.6441h-15.0019l-8.57251 6.4293v-6.4293h-4.28625c-.56839 0-1.11351-.2258-1.51542-.6277s-.62771-.9471-.62771-1.5155v-21.43122c0-.56838.2258-1.11351.62771-1.51541.40191-.40192.94703-.62771 1.51542-.62771h27.86066c.5683 0 1.1135.22579 1.5154.62771.4019.4019.6277.94703.6277 1.51541v21.43122c0 .5684-.2258 1.1136-.6277 1.5155s-.9471.6277-1.5154.6277z" stroke-linecap="round" stroke-linejoin="round"/><path d="m13.7137 10.4991c.0002-.78575.2163-1.55636.6249-2.22759.4085-.67123.9936-1.21724 1.6916-1.57837.6978-.36112 1.4816-.52345 2.2654-.46924.784.05419 1.5379.32284 2.1794.77656.6415.45373 1.146 1.07508 1.4582 1.79614.3123.72106.4203 1.5141.3123 2.2924s-.4277 1.512-.9245 2.1208-1.1514 1.0693-1.8923 1.3312c-.418.1478-.7799.4216-1.0358.7837-.2559.3622-.3932.7946-.3929 1.238v.3657" stroke-linecap="round" stroke-linejoin="round"/><path d="m18 22.2863c-.2959 0-.5358-.2399-.5358-.5358s.2399-.5358.5358-.5358"/><path d="m18 22.2863c.2959 0 .5358-.2399.5358-.5358s-.2399-.5358-.5358-.5358"/></g></svg>