<svg fill="none" height="36" viewBox="0 0 36 36" width="36" xmlns="http://www.w3.org/2000/svg"><g stroke="#c4a500" stroke-linecap="round" stroke-linejoin="round" stroke-width="1.71"><path d="m23.3578 10.5148h5.3578c.5684 0 1.1135.2258 1.5154.6277s.6277.947.6277 1.5154v14.1146c-.0001.568-.2257 1.1127-.6272 1.5145l-5.1749 5.1749c-.4018.4015-.9465.6271-1.5145.6273h-16.25774c-.56839 0-1.1135-.2258-1.51542-.6278-.40191-.4019-.6277-.947-.6277-1.5154v-19.2881c0-.5684.22579-1.1135.6277-1.5154.40192-.4019.94703-.6277 1.51542-.6277h5.35784"/><path d="m22.2863 34.0892v-6.4294c0-.2815.0554-.5601.1631-.8202.1077-.26.2656-.4962.4646-.6952s.4352-.3569.6952-.4646c.2601-.1077.5387-.1631.8202-.1631h6.4294"/><path d="m14.7853 5.15697c0 .85258.3387 1.67025.9415 2.27312.6029.60287 1.4206.94156 2.2732.94156s1.6702-.33869 2.2731-.94156.9416-1.42054.9416-2.27312c0-.85259-.3387-1.67026-.9416-2.27313s-1.4205-.94156-2.2731-.94156-1.6703.33869-2.2732.94156c-.6028.60287-.9415 1.42054-.9415 2.27313z"/><path d="m18 15.8726v-7.50095"/><path d="m10.499 21.2304h15.0019"/><path d="m10.499 27.6598h6.4294"/></g></svg>