<svg width="60" height="60" viewBox="0 0 60 60" fill="none" xmlns="http://www.w3.org/2000/svg">
<rect width="60" height="60" rx="10" fill="#C81418"/>
<path fill-rule="evenodd" clip-rule="evenodd" d="M50.1525 24.0866C46.2483 17.9792 40.0732 14.0359 33.1235 14.0359C22.4948 14.0359 13.6778 23.2592 12.0253 35.3415H27.3933C27.8181 27.0298 33.6108 20.4453 40.6943 20.4453C44.1968 20.4453 47.3838 22.0551 49.7622 24.6876L50.1525 24.0866Z" fill="white"/>
<path fill-rule="evenodd" clip-rule="evenodd" d="M43.8337 21.6004C43.3018 21.4418 42.7567 21.323 42.2007 21.2469L42.1642 22.2922C42.7212 22.3407 43.2673 22.4364 43.7996 22.5759L43.8337 21.6004ZM29.8208 34.6796C29.867 34.1127 29.9419 33.5557 30.0439 33.011L28.4108 32.4166C28.291 32.9541 28.1953 33.5033 28.1252 34.0625L29.8208 34.6796ZM29.7077 28.6974L31.038 29.7368C31.2622 29.2168 31.5134 28.716 31.7892 28.237L30.5164 27.2426C30.2243 27.7076 29.9541 28.1933 29.7077 28.6974ZM32.6183 24.6159L33.4855 25.9016C33.864 25.4851 34.2659 25.0984 34.6886 24.7447L33.8694 23.5301C33.4335 23.8622 33.0158 24.225 32.6183 24.6159ZM36.8114 21.8771L37.1801 23.1629C37.6807 22.934 38.1981 22.7455 38.7295 22.6007L38.3859 21.4026C37.8485 21.5215 37.3228 21.6806 36.8114 21.8771Z" fill="white"/>
<path fill-rule="evenodd" clip-rule="evenodd" d="M44.0404 15.6794C43.5166 15.3155 42.9797 14.9754 42.4307 14.6602L42.3922 15.761C42.9419 16.0648 43.4792 16.3947 44.003 16.7495L44.0404 15.6794ZM13.1137 28.5986C13.3122 28.0833 13.5245 27.577 13.7498 27.0803L11.9641 26.4303C11.739 26.9273 11.5264 27.4335 11.3268 27.9482L13.1137 28.5986ZM17.0544 18.8115L18.502 19.9425C18.8839 19.5385 19.2777 19.1502 19.6828 18.7783L18.2387 17.65C17.8331 18.0218 17.4381 18.4092 17.0544 18.8115ZM25.0192 13.3497L25.9639 14.7503C26.4877 14.5363 27.0204 14.3451 27.5611 14.1777L26.6239 12.7882C26.0811 12.9529 25.546 13.1404 25.0192 13.3497ZM33.9792 12L34.3739 13.3767C34.9702 13.4164 35.56 13.4843 36.1426 13.5793L35.7547 12.2264C35.1697 12.1246 34.5775 12.0488 33.9792 12Z" fill="white"/>
<path d="M14.5601 47.088H13.2301V45.408H16.7861V46.262C16.7861 48.642 15.2181 50.14 12.9361 50.14C10.4441 50.14 8.68007 48.32 8.68007 45.702C8.68007 43.084 10.4441 41.264 12.9081 41.264C15.1201 41.264 16.3941 42.538 16.7161 44.288H14.4201C14.1821 43.63 13.7201 43.238 12.9081 43.238C11.6621 43.238 10.9481 44.274 10.9481 45.702C10.9481 47.172 11.7041 48.166 12.9361 48.166C13.7901 48.166 14.3501 47.746 14.5601 47.088ZM21.3927 50.14C19.1247 50.14 17.6407 48.852 17.6407 46.486V41.404H19.8807V46.29C19.8807 47.508 20.4547 48.138 21.3927 48.138C22.3167 48.138 22.8907 47.508 22.8907 46.29V41.404H25.1307V46.5C25.1307 48.852 23.6607 50.14 21.3927 50.14ZM28.5787 41.404V50H26.3247V41.404H28.5787ZM32.0777 48.054H33.0017C34.4297 48.054 35.2277 47.144 35.2277 45.702C35.2277 44.246 34.4297 43.336 33.0017 43.336H32.0777V48.054ZM29.8657 50V41.404H33.1137C35.8157 41.404 37.4537 43.084 37.4537 45.702C37.4537 48.32 35.8157 50 33.1137 50H29.8657ZM38.3969 41.404H44.5429V43.336H40.6089V44.68H44.2069V46.57H40.6089V48.054H44.5429V50H38.3969V41.404ZM45.1807 47.452H47.5187C47.7007 48.04 48.2047 48.334 48.9047 48.334C49.5907 48.334 50.0667 48.04 50.0667 47.508C50.0667 47.102 49.8007 46.92 49.2547 46.794L47.6027 46.444C46.3427 46.164 45.3907 45.506 45.3907 44.05C45.3907 42.37 46.7907 41.264 48.6947 41.264C50.7947 41.264 51.9847 42.412 52.2227 43.896H50.0247C49.8427 43.42 49.4507 43.056 48.7087 43.056C48.0647 43.056 47.6307 43.336 47.6307 43.812C47.6307 44.19 47.8967 44.4 48.3447 44.498L50.0247 44.89C51.4947 45.24 52.3067 46.038 52.3067 47.368C52.3067 49.132 50.8227 50.14 48.9467 50.14C46.8887 50.14 45.4887 49.146 45.1807 47.452Z" fill="white"/>
</svg>
