<svg height="22" viewBox="0 0 24 22" width="24" xmlns="http://www.w3.org/2000/svg"><g style="fill:none;fill-rule:evenodd;stroke:#fff;stroke-linecap:round;stroke-linejoin:round;stroke-width:1.14" transform="translate(1.284 1.291)"><path d="m2.85752 11.55661v7.8581h5.715v-5.715c0-.3789.15052-.7423.41842-1.0103.268-.2679.6314-.4184 1.0103-.4184h1.4288c.3789 0 .7423.1505 1.0103.4184.2679.268.4184.6314.4184 1.0103v5.715h5.715v-7.8581m-18.57374-1.4288 9.70594-9.70598c.132-.13363.2893-.23972.4626-.31213s.3593-.1097.5471-.1097.3738.03729.5471.1097.3305.1785.4625.31213l9.706 9.70598"/><path d="m15.002 3.698v-2.781h3.572v6.353"/></g></svg>