<svg fill="none" height="60" viewBox="0 0 60 60" width="60" xmlns="http://www.w3.org/2000/svg"><rect fill="#c81418" height="60" rx="10" width="60"/><g fill="#fff"><path clip-rule="evenodd" d="m50.1525 24.0866c-3.9042-6.1074-10.0793-10.0507-17.029-10.0507-10.6287 0-19.4457 9.2233-21.0982 21.3056h15.368c.4248-8.3117 6.2175-14.8962 13.301-14.8962 3.5025 0 6.6895 1.6098 9.0679 4.2423z" fill-rule="evenodd"/><path clip-rule="evenodd" d="m43.8337 21.6004c-.5319-.1586-1.077-.2774-1.633-.3535l-.0365 1.0453c.557.0485 1.1031.1442 1.6354.2837zm-14.0129 13.0792c.0462-.5669.1211-1.1239.2231-1.6686l-1.6331-.5944c-.1198.5375-.2155 1.0867-.2856 1.6459zm-.1131-5.9822 1.3303 1.0394c.2242-.52.4754-1.0208.7512-1.4998l-1.2728-.9944c-.2921.465-.5623.9507-.8087 1.4548zm2.9106-4.0815.8672 1.2857c.3785-.4165.7804-.8032 1.2031-1.1569l-.8192-1.2146c-.4359.3321-.8536.6949-1.2511 1.0858zm4.1931-2.7388.3687 1.2858c.5006-.2289 1.018-.4174 1.5494-.5622l-.3436-1.1981c-.5374.1189-1.0631.278-1.5745.4745z" fill-rule="evenodd"/><path clip-rule="evenodd" d="m44.0404 15.6794c-.5238-.3639-1.0607-.704-1.6097-1.0192l-.0385 1.1008c.5497.3038 1.087.6337 1.6108.9885zm-30.9267 12.9192c.1985-.5153.4108-1.0216.6361-1.5183l-1.7857-.65c-.2251.497-.4377 1.0032-.6373 1.5179zm3.9407-9.7871 1.4476 1.131c.3819-.404.7757-.7923 1.1808-1.1642l-1.4441-1.1283c-.4056.3718-.8006.7592-1.1843 1.1615zm7.9648-5.4618.9447 1.4006c.5238-.214 1.0565-.4052 1.5972-.5726l-.9372-1.3895c-.5428.1647-1.0779.3522-1.6047.5615zm8.96-1.3497.3947 1.3767c.5963.0397 1.1861.1076 1.7687.2026l-.3879-1.3529c-.585-.1018-1.1772-.1776-1.7755-.2264z" fill-rule="evenodd"/><path d="m14.5601 47.088h-1.33v-1.68h3.556v.854c0 2.38-1.568 3.878-3.85 3.878-2.492 0-4.25603-1.82-4.25603-4.438s1.76403-4.438 4.22803-4.438c2.212 0 3.486 1.274 3.808 3.024h-2.296c-.238-.658-.7-1.05-1.512-1.05-1.246 0-1.96 1.036-1.96 2.464 0 1.47.756 2.464 1.988 2.464.854 0 1.414-.42 1.624-1.078zm6.8326 3.052c-2.268 0-3.752-1.288-3.752-3.654v-5.082h2.24v4.886c0 1.218.574 1.848 1.512 1.848.924 0 1.498-.63 1.498-1.848v-4.886h2.24v5.096c0 2.352-1.47 3.64-3.738 3.64zm7.186-8.736v8.596h-2.254v-8.596zm3.499 6.65h.924c1.428 0 2.226-.91 2.226-2.352 0-1.456-.798-2.366-2.226-2.366h-.924zm-2.212 1.946v-8.596h3.248c2.702 0 4.34 1.68 4.34 4.298s-1.638 4.298-4.34 4.298zm8.5312-8.596h6.146v1.932h-3.934v1.344h3.598v1.89h-3.598v1.484h3.934v1.946h-6.146zm6.7838 6.048h2.338c.182.588.686.882 1.386.882.686 0 1.162-.294 1.162-.826 0-.406-.266-.588-.812-.714l-1.652-.35c-1.26-.28-2.212-.938-2.212-2.394 0-1.68 1.4-2.786 3.304-2.786 2.1 0 3.29 1.148 3.528 2.632h-2.198c-.182-.476-.574-.84-1.316-.84-.644 0-1.078.28-1.078.756 0 .378.266.588.714.686l1.68.392c1.47.35 2.282 1.148 2.282 2.478 0 1.764-1.484 2.772-3.36 2.772-2.058 0-3.458-.994-3.766-2.688z"/></g></svg>