<svg xmlns="http://www.w3.org/2000/svg" width="28" height="34" viewBox="0 0 28 34"><g fill="none" fill-rule="evenodd" stroke="#FFF" stroke-linecap="round" stroke-linejoin="round" stroke-width="1.71" transform="translate(1.141 .927)"><path d="M25.71745,32.14683 L3.21469,32.14683 C2.3621,32.14683 1.54443,31.80813 0.94156,31.20533 C0.33869,30.60243 0,29.78473 0,28.93213"/><path d="M12.85875,2.14313 L4.28625,2.14313 C3.14947,2.14313 2.05924,2.59472 1.25541,3.39855 C0.45159,4.20237 0,5.2926 0,6.42938 L0,28.93223 C0,28.07963 0.33869,27.26193 0.94156,26.65903 C1.54443,26.05623 2.3621,25.71753 3.21469,25.71753 L24.64595,25.71753 C24.93015,25.71753 25.20265,25.60463 25.40365,25.40363 C25.60465,25.20273 25.71745,24.93013 25.71745,24.64593 L25.71745,3.21469 C25.71745,2.9305 25.60465,2.65794 25.40365,2.45699 C25.20265,2.25603 24.93015,2.14313 24.64595,2.14313 L21.43125,2.14313"/><line x1="23.574" x2="23.574" y1="32.147" y2="25.718"/><path d="M21.43125,17.14503 L17.14495,12.85873 L12.85875,17.14503 L12.85875,2.14313 C12.85875,1.57474 13.08455,1.02963 13.48645,0.62771 C13.88835,0.2258 14.43345,-1.77635684e-15 15.00185,-1.77635684e-15 L19.28815,-1.77635684e-15 C19.56955,-1.77635684e-15 19.84825,0.05544 20.10825,0.16314 C20.36825,0.27084 20.60455,0.4287 20.80355,0.62771 C21.00255,0.82672 21.16045,1.06298 21.26815,1.32299 C21.37585,1.58301 21.43125,1.86169 21.43125,2.14313 L21.43125,17.14503 Z"/></g></svg>