<svg width="36" height="36" viewBox="0 0 36 36" fill="none" xmlns="http://www.w3.org/2000/svg">
<path d="M31.9303 27.6441H16.9284L8.35589 34.0734V27.6441H4.06964C3.50125 27.6441 2.95613 27.4183 2.55422 27.0164C2.15231 26.6145 1.92651 26.0693 1.92651 25.5009V4.06968C1.92651 3.5013 2.15231 2.95617 2.55422 2.55427C2.95613 2.15235 3.50125 1.92656 4.06964 1.92656H31.9303C32.4986 1.92656 33.0438 2.15235 33.4457 2.55427C33.8476 2.95617 34.0734 3.5013 34.0734 4.06968V25.5009C34.0734 26.0693 33.8476 26.6145 33.4457 27.0164C33.0438 27.4183 32.4986 27.6441 31.9303 27.6441Z" stroke="#666666" stroke-width="1.71" stroke-linecap="round" stroke-linejoin="round"/>
<path d="M13.7137 10.4991C13.7139 9.71335 13.93 8.94274 14.3386 8.27151C14.7471 7.60028 15.3322 7.05427 16.0302 6.69314C16.728 6.33202 17.5118 6.16969 18.2956 6.2239C19.0796 6.27809 19.8335 6.54674 20.475 7.00046C21.1165 7.45419 21.621 8.07554 21.9332 8.7966C22.2455 9.51766 22.3535 10.3107 22.2455 11.089C22.1375 11.8673 21.8178 12.601 21.321 13.2098C20.8242 13.8186 20.1696 14.2791 19.4287 14.541C19.0107 14.6888 18.6488 14.9626 18.3929 15.3247C18.137 15.6869 17.9997 16.1193 18 16.5627V16.9284" stroke="#666666" stroke-width="1.71" stroke-linecap="round" stroke-linejoin="round"/>
<path d="M18 22.2863C17.7041 22.2863 17.4642 22.0464 17.4642 21.7505C17.4642 21.4546 17.7041 21.2147 18 21.2147" stroke="#666666" stroke-width="1.71"/>
<path d="M18 22.2863C18.2959 22.2863 18.5358 22.0464 18.5358 21.7505C18.5358 21.4546 18.2959 21.2147 18 21.2147" stroke="#666666" stroke-width="1.71"/>
</svg>
