<svg width="24" height="24" viewBox="0 0 24 24" fill="none" xmlns="http://www.w3.org/2000/svg">
<path d="M4.14188 13.8479V21.706H9.85688V15.991C9.85688 15.6121 10.0074 15.2487 10.2753 14.9807C10.5433 14.7128 10.9067 14.5623 11.2856 14.5623H12.7144C13.0933 14.5623 13.4567 14.7128 13.7247 14.9807C13.9926 15.2487 14.1431 15.6121 14.1431 15.991V21.706H19.8581V13.8479" stroke="black" stroke-width="1.14" stroke-linecap="round" stroke-linejoin="round"/>
<path d="M1.28436 12.4191L10.9903 2.71312C11.1223 2.57949 11.2796 2.4734 11.4529 2.40099C11.6262 2.32858 11.8122 2.29129 12 2.29129C12.1878 2.29129 12.3738 2.32858 12.5471 2.40099C12.7204 2.4734 12.8776 2.57949 13.0096 2.71312L22.7156 12.4191" stroke="black" stroke-width="1.14" stroke-linecap="round" stroke-linejoin="round"/>
<path d="M16.2863 5.98973V3.20844H19.8581V9.56161" stroke="black" stroke-width="1.14" stroke-linecap="round" stroke-linejoin="round"/>
</svg>
