<svg width="36" height="36" viewBox="0 0 36 36" fill="none" xmlns="http://www.w3.org/2000/svg">
<path d="M3.35532 8.35593H32.6447C32.6447 8.35593 34.0734 8.35593 34.0734 9.78468V21.9291C34.0734 21.9291 34.0735 23.3578 32.6447 23.3578H3.35532C3.35532 23.3578 1.92657 23.3578 1.92657 21.9291V9.78468C1.92657 9.78468 1.92657 8.35593 3.35532 8.35593Z" stroke="black" stroke-width="1.71" stroke-linecap="round" stroke-linejoin="round"/>
<path d="M6.21283 23.3578V34.0734" stroke="black" stroke-width="1.71" stroke-linecap="round" stroke-linejoin="round"/>
<path d="M29.7872 23.3578V34.0734" stroke="black" stroke-width="1.71" stroke-linecap="round" stroke-linejoin="round"/>
<path d="M7.28436 4.06968C7.28436 4.35112 7.3398 4.62981 7.4475 4.88982C7.5552 5.14984 7.71306 5.3861 7.91207 5.5851C8.11108 5.78411 8.34733 5.94197 8.60735 6.04967C8.86737 6.15738 9.14605 6.21281 9.42749 6.21281C9.70893 6.21281 9.98761 6.15738 10.2476 6.04967C10.5076 5.94197 10.7439 5.78411 10.9429 5.5851C11.1419 5.3861 11.2998 5.14984 11.4075 4.88982C11.5152 4.62981 11.5706 4.35112 11.5706 4.06968C11.5706 3.50129 11.3448 2.95618 10.9429 2.55427C10.541 2.15235 9.99588 1.92656 9.42749 1.92656C8.8591 1.92656 8.31398 2.15235 7.91207 2.55427C7.51016 2.95618 7.28436 3.50129 7.28436 4.06968Z" stroke="black" stroke-width="1.71" stroke-linecap="round" stroke-linejoin="round"/>
<path d="M24.4294 4.06968C24.4294 4.63808 24.6552 5.18319 25.0571 5.5851C25.459 5.98702 26.0041 6.21281 26.5725 6.21281C27.1409 6.21281 27.686 5.98702 28.0879 5.5851C28.4898 5.18319 28.7156 4.63808 28.7156 4.06968C28.7156 3.50129 28.4898 2.95618 28.0879 2.55427C27.686 2.15235 27.1409 1.92656 26.5725 1.92656C26.0041 1.92656 25.459 2.15235 25.0571 2.55427C24.6552 2.95618 24.4294 3.50129 24.4294 4.06968Z" stroke="black" stroke-width="1.71" stroke-linecap="round" stroke-linejoin="round"/>
<path d="M12.6422 8.35593L1.92657 19.0716" stroke="black" stroke-width="1.71" stroke-linecap="round" stroke-linejoin="round"/>
<path d="M21.2147 8.35593L6.21283 23.3578" stroke="black" stroke-width="1.71" stroke-linecap="round" stroke-linejoin="round"/>
<path d="M29.7872 8.35593L14.7853 23.3578" stroke="black" stroke-width="1.71" stroke-linecap="round" stroke-linejoin="round"/>
<path d="M34.0734 12.6422L23.3578 23.3578" stroke="black" stroke-width="1.71" stroke-linecap="round" stroke-linejoin="round"/>
</svg>
