<svg fill="none" height="24" viewBox="0 0 24 24" width="24" xmlns="http://www.w3.org/2000/svg"><g stroke="#000" stroke-linecap="round" stroke-linejoin="round" stroke-width="1.14"><path d="m4.14188 13.8479v7.8581h5.715v-5.715c0-.3789.15052-.7423.41842-1.0103.268-.2679.6314-.4184 1.0103-.4184h1.4288c.3789 0 .7423.1505 1.0103.4184.2679.268.4184.6314.4184 1.0103v5.715h5.715v-7.8581"/><path d="m1.28436 12.4191 9.70594-9.70598c.132-.13363.2893-.23972.4626-.31213s.3593-.1097.5471-.1097.3738.03729.5471.1097.3305.1785.4625.31213l9.706 9.70598"/><path d="m16.2863 5.98973v-2.78129h3.5718v6.35317"/></g></svg>