<svg xmlns="http://www.w3.org/2000/svg" width="24" height="22" viewBox="0 0 24 22"><g fill="none" fill-rule="evenodd" stroke="#FFF" stroke-linecap="round" stroke-linejoin="round" stroke-width="1.14" transform="translate(1.284 1.291)"><path d="M2.85752 11.55661 2.85752 19.41471 8.57252 19.41471 8.57252 13.69971C8.57252 13.32081 8.72304 12.95741 8.99094 12.68941 9.25894 12.42151 9.62234 12.27101 10.00124 12.27101L11.43004 12.27101C11.80894 12.27101 12.17234 12.42151 12.44034 12.68941 12.70824 12.95741 12.85874 13.32081 12.85874 13.69971L12.85874 19.41471 18.57374 19.41471 18.57374 11.55661M0 10.12781 9.70594.42183C9.83794.2882 9.99524.18211 10.16854.1097 10.34184.03729 10.52784 0 10.71564 0 10.90344 0 11.08944.03729 11.26274.1097 11.43604.18211 11.59324.2882 11.72524.42183L21.43124 10.12781"/><polyline points="15.002 3.698 15.002 .917 18.574 .917 18.574 7.27"/></g></svg>