<svg width="36" height="36" viewBox="0 0 36 36" fill="none" xmlns="http://www.w3.org/2000/svg">
<path d="M22.2862 25.5009V31.9303C22.2862 32.4987 22.0605 33.0438 21.6585 33.4457C21.2566 33.8477 20.7115 34.0734 20.1431 34.0734H15.8569C15.2885 34.0734 14.7434 33.8477 14.3415 33.4457C13.9395 33.0438 13.7137 32.4987 13.7137 31.9303V25.5009" stroke="#00B9C4" stroke-width="1.71" stroke-linecap="round" stroke-linejoin="round"/>
<path d="M13.7137 29.7872H22.2862" stroke="#00B9C4" stroke-width="1.71" stroke-linecap="round" stroke-linejoin="round"/>
<path d="M18 1.92656V4.06968" stroke="#00B9C4" stroke-width="1.71" stroke-linecap="round" stroke-linejoin="round"/>
<path d="M2.99817 16.9284H5.14129" stroke="#00B9C4" stroke-width="1.71" stroke-linecap="round" stroke-linejoin="round"/>
<path d="M6.21289 6.21281L7.78452 7.72729" stroke="#00B9C4" stroke-width="1.71" stroke-linecap="round" stroke-linejoin="round"/>
<path d="M33.0019 16.9284H30.8588" stroke="#00B9C4" stroke-width="1.71" stroke-linecap="round" stroke-linejoin="round"/>
<path d="M29.7872 6.21281L28.2156 7.72729" stroke="#00B9C4" stroke-width="1.71" stroke-linecap="round" stroke-linejoin="round"/>
<path d="M13.7137 16.2141C14.2821 16.2141 14.8272 16.4399 15.2292 16.8418C15.6311 17.2437 15.8569 17.7888 15.8569 18.3572V25.5009" stroke="#00B9C4" stroke-width="1.71" stroke-linecap="round" stroke-linejoin="round"/>
<path d="M20.1432 25.5009V18.3572C20.1432 18.0758 20.1986 17.7971 20.3063 17.5371C20.414 17.277 20.5719 17.0408 20.7709 16.8418C20.9699 16.6428 21.2062 16.4849 21.4662 16.3772C21.7262 16.2695 22.0049 16.2141 22.2863 16.2141" stroke="#00B9C4" stroke-width="1.71" stroke-linecap="round" stroke-linejoin="round"/>
<path d="M13.5995 25.5009H22.4006C23.9939 24.7117 25.3317 23.4882 26.2594 21.9714C27.1872 20.4545 27.6672 18.7063 27.6441 16.9284C27.6001 14.3844 26.5699 11.957 24.7707 10.1578C22.9716 8.35865 20.5441 7.32844 18.0001 7.28438C15.4561 7.32844 13.0286 8.35865 11.2294 10.1578C9.4303 11.957 8.40008 14.3844 8.35602 16.9284C8.33292 18.7063 8.81295 20.4545 9.74073 21.9714C10.6685 23.4882 12.0062 24.7117 13.5995 25.5009Z" stroke="#00B9C4" stroke-width="1.71" stroke-linecap="round" stroke-linejoin="round"/>
</svg>
