<svg xmlns="http://www.w3.org/2000/svg" width="34" height="34" viewBox="0 0 34 34"><g fill="none" fill-rule="evenodd" stroke="#C4A500" stroke-linecap="round" stroke-linejoin="round" stroke-width="1.71" transform="translate(.927 .927)"><path d="M1.42875,6.42937 L30.71813,6.42937 C30.71813,6.42937 32.14683,6.42937 32.14683,7.85812 L32.14683,20.00254 C32.14683,20.00254 32.14683,21.43124 30.71813,21.43124 L1.42875,21.43124 C1.42875,21.43124 0,21.43124 0,20.00254 L0,7.85812 C0,7.85812 0,6.42937 1.42875,6.42937 Z"/><line x1="4.286" x2="4.286" y1="21.431" y2="32.147"/><line x1="27.861" x2="27.861" y1="21.431" y2="32.147"/><path d="M5.35779 2.14312C5.35779 2.42456 5.41323 2.70325 5.52093 2.96326 5.62863 3.22328 5.78649 3.45954 5.9855 3.65854 6.18451 3.85755 6.42076 4.01541 6.68078 4.12311 6.9408 4.23082 7.21948 4.28625 7.50092 4.28625 7.78236 4.28625 8.06104 4.23082 8.32103 4.12311 8.58103 4.01541 8.81733 3.85755 9.01633 3.65854 9.21533 3.45954 9.37323 3.22328 9.48093 2.96326 9.58863 2.70325 9.64403 2.42456 9.64403 2.14312 9.64403 1.57473 9.41823 1.02962 9.01633.62771 8.61443.22579 8.06931 8.8817842e-16 7.50092 8.8817842e-16 6.93253 8.8817842e-16 6.38741.22579 5.9855.62771 5.58359 1.02962 5.35779 1.57473 5.35779 2.14312ZM22.50283 2.14312C22.50283 2.71152 22.72863 3.25663 23.13053 3.65854 23.53243 4.06046 24.07753 4.28625 24.64593 4.28625 25.21433 4.28625 25.75943 4.06046 26.16133 3.65854 26.56323 3.25663 26.78903 2.71152 26.78903 2.14312 26.78903 1.57473 26.56323 1.02962 26.16133.62771 25.75943.22579 25.21433 8.8817842e-16 24.64593 8.8817842e-16 24.07753 8.8817842e-16 23.53243.22579 23.13053.62771 22.72863 1.02962 22.50283 1.57473 22.50283 2.14312L22.50283 2.14312Z"/><line x1="10.716" y1="6.429" y2="17.145"/><line x1="19.288" x2="4.286" y1="6.429" y2="21.431"/><line x1="27.861" x2="12.859" y1="6.429" y2="21.431"/><line x1="32.147" x2="21.431" y1="10.716" y2="21.431"/></g></svg>