<svg fill="none" height="36" viewBox="0 0 36 36" width="36" xmlns="http://www.w3.org/2000/svg"><g stroke="#cecece" stroke-linecap="round" stroke-linejoin="round" stroke-width="1.71"><path d="m33.0019 31.9347c0 .5684-.2258 1.1135-.6277 1.5154-.402.4019-.9471.6277-1.5155.6277h-25.71747c-.56839 0-1.1135-.2258-1.51542-.6277-.40191-.4019-.6277-.947-.6277-1.5154v-27.86067c0-.56839.22579-1.1135.6277-1.51541.40192-.40192.94703-.62771 1.51542-.62771h21.49557c.5596.00006 1.097.21902 1.4973.61007l4.222 4.11766c.2045.19976.367.43844.478.70197.1109.26353.1679.54659.1678.83251z"/><path d="m21.279 13.718 5.3578 5.3578-5.3578 5.3578"/><path d="m14.8496 13.718-5.35778 5.3578 5.35778 5.3578"/></g></svg>