<svg fill="none" height="36" viewBox="0 0 36 36" width="36" xmlns="http://www.w3.org/2000/svg"><g stroke="#000" stroke-linecap="round" stroke-linejoin="round" stroke-width="1.71"><path d="m3.35532 8.35593h29.28938s1.4287 0 1.4287 1.42875v12.14442s.0001 1.4287-1.4287 1.4287h-29.28938s-1.42875 0-1.42875-1.4287v-12.14442s0-1.42875 1.42875-1.42875z"/><path d="m6.21283 23.3578v10.7156"/><path d="m29.7872 23.3578v10.7156"/><path d="m7.28436 4.06968c0 .28144.05544.56013.16314.82014.1077.26002.26556.49628.46457.69528.19901.19901.43526.35687.69528.46457.26002.10771.5387.16314.82014.16314s.56012-.05543.82011-.16314c.26-.1077.4963-.26556.6953-.46457.199-.199.3569-.43526.4646-.69528.1077-.26001.1631-.5387.1631-.82014 0-.56839-.2258-1.1135-.6277-1.51541-.4019-.40192-.94702-.62771-1.51541-.62771s-1.11351.22579-1.51542.62771c-.40191.40191-.62771.94702-.62771 1.51541z"/><path d="m24.4294 4.06968c0 .5684.2258 1.11351.6277 1.51542.4019.40192.947.62771 1.5154.62771s1.1135-.22579 1.5154-.62771c.4019-.40191.6277-.94702.6277-1.51542 0-.56839-.2258-1.1135-.6277-1.51541-.4019-.40192-.947-.62771-1.5154-.62771s-1.1135.22579-1.5154.62771c-.4019.40191-.6277.94702-.6277 1.51541z"/><path d="m12.6422 8.35593-10.71563 10.71567"/><path d="m21.2147 8.35593-15.00187 15.00187"/><path d="m29.7872 8.35593-15.0019 15.00187"/><path d="m34.0734 12.6422-10.7156 10.7156"/></g></svg>