<svg fill="none" height="36" viewBox="0 0 36 36" width="36" xmlns="http://www.w3.org/2000/svg"><g stroke="#00b9c4" stroke-linecap="round" stroke-linejoin="round" stroke-width="1.71"><path d="m22.2862 25.5009v6.4294c0 .5684-.2257 1.1135-.6277 1.5154-.4019.402-.947.6277-1.5154.6277h-4.2862c-.5684 0-1.1135-.2257-1.5154-.6277-.402-.4019-.6278-.947-.6278-1.5154v-6.4294"/><path d="m13.7137 29.7872h8.5725"/><path d="m18 1.92656v2.14312"/><path d="m2.99817 16.9284h2.14312"/><path d="m6.21289 6.21281 1.57163 1.51448"/><path d="m33.0019 16.9284h-2.1431"/><path d="m29.7872 6.21281-1.5716 1.51448"/><path d="m13.7137 16.2141c.5684 0 1.1135.2258 1.5155.6277.4019.4019.6277.947.6277 1.5154v7.1437"/><path d="m20.1432 25.5009v-7.1437c0-.2814.0554-.5601.1631-.8201.1077-.2601.2656-.4963.4646-.6953s.4353-.3569.6953-.4646.5387-.1631.8201-.1631"/><path d="m13.5995 25.5009h8.8011c1.5933-.7892 2.9311-2.0127 3.8588-3.5295.9278-1.5169 1.4078-3.2651 1.3847-5.043-.044-2.544-1.0742-4.9714-2.8734-6.7706-1.7991-1.79915-4.2266-2.82936-6.7706-2.87342-2.544.04406-4.9715 1.07427-6.7707 2.87342-1.7991 1.7992-2.82932 4.2266-2.87338 6.7706-.0231 1.7779.45693 3.5261 1.38471 5.043.92777 1.5168 2.26547 2.7403 3.85877 3.5295z"/></g></svg>