<svg fill="none" height="36" viewBox="0 0 36 36" width="36" xmlns="http://www.w3.org/2000/svg"><g stroke="#c81418" stroke-linecap="round" stroke-linejoin="round" stroke-miterlimit="10" stroke-width="1.71"><path d="m16.8591 15.4997v-11.00139c0-1.42875 1.143-2.57174 2.5718-2.57174 1.4287 0 2.5717 1.14299 2.5717 2.57174v11.00139"/><path d="m16.8591 15.4997v-9.42972c0-1.42875-1.143-2.57175-2.5717-2.57175s-2.5718 1.143-2.5718 2.57175v15.85902l-4.00046-2.286c-1.143-.4286-2.57175-.1428-3.429.8573s-.71436 2.5717.14289 3.5719l5.42924 6.1436c2.14313 2.4289 5.28633 3.8576 8.57243 3.8576h5.2864c4.7149 0 8.5725-3.8576 8.5725-8.5725v-16.14484c0-1.42875-1.143-2.57173-2.5717-2.57173-1.4288 0-2.5718 1.14298-2.5718 2.57173v6.14364"/><path d="m27.1462 15.4997v-9.42972c0-1.42875-1.143-2.57175-2.5718-2.57175-1.4287 0-2.5717 1.143-2.5717 2.57175v9.42972"/></g></svg>