<svg fill="none" height="75" viewBox="0 0 75 75" width="75" xmlns="http://www.w3.org/2000/svg" xmlns:xlink="http://www.w3.org/1999/xlink"><clipPath id="a"><path d="m7.36609 24.1071h60.2678v21.4286h-60.2678z"/></clipPath><circle cx="37.5" cy="37.5" fill="#c81418" r="37.5"/><g clip-path="url(#a)"><path d="m67.0194 34.8211v2.7546h-4.8886v1.2713h2.467c1.3209 0 2.7271.982 2.8112 2.6562l.0039.159v1.0594c-.0588 2.0143-1.703 2.7717-2.7265 2.8133l-.0886.0018h-4.9492v-2.7394l5.0097-.0152v-1.3318l-.7969.0005-.2323.0005-.0566.0002-.0855.0005-.03.0003-.0373.0005-.011.0006c.0003.0002.0089.0005.023.0008l.0349.0005c.0205.0003.0448.0006.0705.0008l.0523.0004-.104-.0003c-.2105-.001-.5709-.0027-1.1579-.0053-1.1887 0-2.7333-.8966-2.8259-2.6484l-.0043-.1668v-.9535c0-1.8068 1.5256-2.801 2.7224-2.8579l.1078-.0026zm-12.5167 0v7.9459h4.1319v2.7697h-7.1892v-10.7156zm-4.3135 0v10.7156h-3.0724v-10.7156zm-7.2345 0c.7083 0 2.7115.4892 2.8112 2.6459l.0039.1692v7.9005h-2.8605v-1.8919h-2.7697v1.8919h-2.9514v-7.9005c0-.8828.6724-2.7099 2.6431-2.8107l.1721-.0044zm-16.17-.0018 5.7457.0004c.1201.0131 3.183.3818 3.183 3.7124 0 3.3305-2.5283 3.6125-2.6275 3.6223l-.003.0002 3.352 3.3821h-4.2689l-2.4953-2.5854v2.5854h-2.886zm15.0125-1.8062.0224.0221s-.2573.1816-.5298.4086c-8.5967-6.3567-13.8485-3.3599-15.4983-2.5578-7.4918 4.1805-5.3268 14.4428-5.2827 14.6476l.0006.0031h-11.95666s.45404-4.4799 3.63236-9.7772c3.1784-5.2973 8.5968-9.3081 13.0011-9.7016 8.4921-.8507 16.1457 6.4998 16.611 6.9552zm-20.8337 9.4966 1.6346.5903c.0756.5928.1828 1.154.2953 1.6662l.0679.3013-1.8162-.6508c-.0757-.454-.1514-1.1048-.1816-1.907zm21.0982-5.1308h-1.014c-.7554 0-.8927.3952-.9177.5389l-.0049.0377-.0006.0102-.0001 2.6219h2.7697l-.0002-2.6227c-.0033-.0532-.0558-.586-.8322-.586zm-33.81167.2271 1.74054.6356c-.21189.49-.48172 1.1191-.67767 1.6134l-.07909.2028-1.74052-.6356c.15135-.4087.46917-1.1654.75674-1.8162zm23.73557-.0961h-2.3149v2.4501h2.2999s.6614-.2555.6614-1.2325c0-.9771-.6464-1.2176-.6464-1.2176zm-10.341-.5093 1.0897.8627c-.1211.4722-.2131.9444-.2761 1.4166l-.0418.3542-1.2259-.9687c.1211-.5448.2573-1.1048.4541-1.6648zm2.6789-4.2227.681 1.0292c-.2664.2785-.5134.5569-.7332.8509l-.1597.2237-.7265-1.0898c.2724-.3481.5902-.6962.9384-1.014zm-10.8367-2.24 1.0745.9384c-.2724.2838-.5363.5846-.7853.8896l-.2438.306-1.1654-.9989c.3481-.3783.7264-.7567 1.12-1.1351zm14.9988-.0605.333.9989c-.3512.1089-.7023.247-1.0534.4063l-.2634.1234-.3481-1.0443c.3784-.1665.8173-.333 1.3319-.4843zm3.5416-.3633c.3874.0242.7846.0678 1.1914.1385l.307.0583-.0606.9383c-.3996-.0847-.7991-.1404-1.1987-.167l-.2996-.0146zm-12.4259-4.1773.6811 1.0444c-.2951.1475-.5818.3121-.8726.4874l-.2928.1785-.6962-1.0594c.4086-.2422.8021-.4541 1.1805-.6509zm12.4562-.5751c.9005.2573 1.288.4336 1.4431.5162l.025.0135-.0606 1.0141c-.3229-.1312-.6457-.2556-.9731-.3733l-.495-.1716zm-5.7816-.8929.3027.9232h-.1514c-.3292 0-.6584.0085-.9875.0319l-.3292.0286-.2876-.8929c.4995-.0606.9838-.0908 1.453-.0908z" fill="#fff"/></g></svg>