<svg width="75" height="75" viewBox="0 0 75 75" fill="none" xmlns="http://www.w3.org/2000/svg">
<circle cx="37.5" cy="37.5" r="37.5" fill="#C81418"/>
<g clip-path="url(#clip0_262_30)">
<path d="M67.0194 34.8211V37.5757H62.1308V38.847H64.5978C65.9187 38.847 67.3249 39.829 67.409 41.5032L67.4129 41.6622V42.7216C67.3541 44.7359 65.7099 45.4933 64.6864 45.5349L64.5978 45.5367H59.6486V42.7973L64.6583 42.7821V41.4503L63.8614 41.4508L63.6291 41.4513L63.5725 41.4515L63.487 41.452L63.457 41.4523L63.4197 41.4528L63.4087 41.4534C63.409 41.4536 63.4176 41.4539 63.4317 41.4542L63.4666 41.4547C63.4871 41.455 63.5114 41.4553 63.5371 41.4555L63.5894 41.4559L63.4854 41.4556C63.2749 41.4546 62.9145 41.4529 62.3275 41.4503C61.1388 41.4503 59.5942 40.5537 59.5016 38.8019L59.4973 38.6351V37.6816C59.4973 35.8748 61.0229 34.8806 62.2197 34.8237L62.3275 34.8211H67.0194ZM54.5027 34.8211V42.767H58.6346V45.5367H51.4454V34.8211H54.5027ZM50.1892 34.8211V45.5367H47.1168V34.8211H50.1892ZM42.9547 34.8211C43.663 34.8211 45.6662 35.3103 45.7659 37.467L45.7698 37.6362V45.5367H42.9093V43.6448H40.1396V45.5367H37.1882V37.6362C37.1882 36.7534 37.8606 34.9263 39.8313 34.8255L40.0034 34.8211H42.9547ZM26.7847 34.8193L32.5304 34.8197C32.6505 34.8328 35.7134 35.2015 35.7134 38.5321C35.7134 41.8626 33.1851 42.1446 33.0859 42.1544L33.0829 42.1546L36.4349 45.5367H32.166L29.6707 42.9513V45.5367H26.7847V34.8193ZM41.7972 33.0131L41.8196 33.0352C41.8196 33.0352 41.5623 33.2168 41.2898 33.4438C32.6931 27.0871 27.4413 30.0839 25.7915 30.886C18.2997 35.0665 20.4647 45.3288 20.5088 45.5336L20.5094 45.5367H8.55274C8.55274 45.5367 9.00678 41.0568 12.1851 35.7595C15.3635 30.4622 20.7819 26.4514 25.1862 26.0579C33.6783 25.2072 41.3319 32.5577 41.7972 33.0131ZM20.9635 42.5097L22.5981 43.1C22.6737 43.6928 22.7809 44.254 22.8934 44.7662L22.9613 45.0675L21.1451 44.4167C21.0694 43.9627 20.9937 43.3119 20.9635 42.5097ZM42.0617 37.3789H41.0477C40.2923 37.3789 40.155 37.7741 40.13 37.9178L40.1251 37.9555L40.1245 37.9657L40.1244 40.5876H42.8941L42.8939 37.9649C42.8906 37.9117 42.8381 37.3789 42.0617 37.3789ZM8.25003 37.606L9.99057 38.2416C9.77868 38.7316 9.50885 39.3607 9.3129 39.855L9.23381 40.0578L7.49329 39.4222C7.64464 39.0135 7.96246 38.2568 8.25003 37.606ZM31.9856 37.5099H29.6707V39.96H31.9706C31.9706 39.96 32.632 39.7045 32.632 38.7275C32.632 37.7504 31.9856 37.5099 31.9856 37.5099ZM21.6446 37.0006L22.7343 37.8633C22.6132 38.3355 22.5212 38.8077 22.4582 39.2799L22.4164 39.6341L21.1905 38.6654C21.3116 38.1206 21.4478 37.5606 21.6446 37.0006ZM24.3235 32.7779L25.0045 33.8071C24.7381 34.0856 24.4911 34.364 24.2713 34.658L24.1116 34.8817L23.3851 33.7919C23.6575 33.4438 23.9753 33.0957 24.3235 32.7779ZM13.4868 30.5379L14.5613 31.4763C14.2889 31.7601 14.025 32.0609 13.776 32.3659L13.5322 32.6719L12.3668 31.673C12.7149 31.2947 13.0932 30.9163 13.4868 30.5379ZM28.4856 30.4774L28.8186 31.4763C28.4674 31.5852 28.1163 31.7233 27.7652 31.8826L27.5018 32.006L27.1537 30.9617C27.5321 30.7952 27.971 30.6287 28.4856 30.4774ZM32.0272 30.1141C32.4146 30.1383 32.8118 30.1819 33.2186 30.2526L33.5256 30.3109L33.465 31.2492C33.0654 31.1645 32.6659 31.1088 32.2663 31.0822L31.9667 31.0676L32.0272 30.1141ZM19.6013 25.9368L20.2824 26.9812C19.9873 27.1287 19.7006 27.2933 19.4098 27.4686L19.117 27.6471L18.4208 26.5877C18.8294 26.3455 19.2229 26.1336 19.6013 25.9368ZM32.0575 25.3617C32.958 25.619 33.3455 25.7953 33.5006 25.8779L33.5256 25.8914L33.465 26.9055C33.1421 26.7743 32.8193 26.6499 32.4919 26.5322L31.9969 26.3606L32.0575 25.3617ZM26.2759 24.4688L26.5786 25.392H26.4272C26.098 25.392 25.7688 25.4005 25.4397 25.4239L25.1105 25.4525L24.8229 24.5596C25.3224 24.499 25.8067 24.4688 26.2759 24.4688Z" fill="white"/>
</g>
<defs>
<clipPath id="clip0_262_30">
<rect width="60.2678" height="21.4286" fill="white" transform="translate(7.36609 24.1071)"/>
</clipPath>
</defs>
</svg>
