<svg fill="none" height="26" viewBox="0 0 687 26" width="687" xmlns="http://www.w3.org/2000/svg" xmlns:xlink="http://www.w3.org/1999/xlink"><clipPath id="a"><path d="m0 0h18v18h-18z" transform="matrix(.70710678 .70710678 -.70710678 .70710678 344 0)"/></clipPath><g stroke="#c81418"><path d="m358 15.5h329"/><path d="m0 15.5h329"/><g clip-path="url(#a)" stroke-linecap="round" stroke-linejoin="round"><path d="m337.547 8.42212c0 .37619.167.7487.491 1.09625.324.34756.8.66333 1.399.92933s1.31.4771 2.092.621c.783.144 1.622.2181 2.469.2181s1.686-.0741 2.469-.2181c.782-.1439 1.493-.355 2.092-.621s1.075-.58177 1.399-.92933c.324-.34755.491-.72006.491-1.09625s-.167-.7487-.491-1.09626c-.324-.34755-.8-.66335-1.399-.92936s-1.31-.47702-2.092-.62098c-.783-.14396-1.622-.21806-2.469-.21806s-1.686.0741-2.469.21806c-.782.14396-1.493.35497-2.092.62098s-1.075.58181-1.399.92936c-.324.34756-.491.72007-.491 1.09626z"/><path d="m354.461 13.6321c-2.404 2.061-6.193 3.3946-10.466 3.3946-4.274 0-8.057-1.3387-10.467-3.3946"/><path d="m337.544 8.42413-4.005 5.20797"/><path d="m350.456 8.42413 4.005 5.20797"/><path d="m333.725 13.6776 10.275 9.5673 10.275-9.5673"/><path d="m344.005 23.2399-.005-3.8239"/><path d="m337.575 8.77773-.475 6.43547 4.46-3.9653"/><path d="m350.643 8.77268.394 6.52642-4.597-4.0512"/><path d="m341.56 11.3388 2.44 5.5717 2.44-5.5717"/></g></g></svg>